<svg width="1021" height="1020" viewBox="0 0 1021 1020" fill="none" xmlns="http://www.w3.org/2000/svg">
<path d="M136.882 403.245C136.882 403.245 53.8372 395.058 66.0822 303.168C79.0236 351.178 123.63 354.845 123.63 354.845L136.882 403.245Z" fill="url(#paint0_radial_18_181)"/>
<path d="M188.286 390.091C188.286 390.091 257.928 344.11 204.227 268.541C215.172 317.043 177.429 341.1 177.429 341.1L188.286 390.091Z" fill="url(#paint1_radial_18_181)"/>
<path d="M126.952 354.088L40.8608 170.884L62.5118 31.0871L147.39 337.95L126.952 354.088Z" fill="#E3E3E3"/>
<path d="M172.59 341.65L152.577 140.218L62.3147 31.2933L146.769 338.273L172.59 341.65Z" fill="#C8C8C8"/>
<path fill-rule="evenodd" clip-rule="evenodd" d="M184.539 398.797C191.416 389.42 194.059 376.175 190.597 362.867C184.953 341.17 165.216 327.525 146.513 332.39C127.81 337.255 117.224 358.789 122.869 380.486C126.552 394.644 136.236 405.374 147.717 409.769L176.056 497.177C176.056 497.177 178.984 508.895 195.378 504.566C211.772 500.238 208.901 489.691 208.901 489.691L184.539 398.797Z" fill="url(#paint2_radial_18_181)"/>
<path d="M163.765 396.706C175.51 393.651 182.157 380.129 178.613 366.504C175.068 352.879 162.674 344.311 150.93 347.366C139.185 350.421 132.538 363.943 136.082 377.568C139.626 391.193 152.021 399.762 163.765 396.706Z" fill="#EFDC83"/>
<path d="M162.42 391.536C171.702 389.122 176.955 378.434 174.153 367.664C171.352 356.895 161.556 350.122 152.275 352.536C142.993 354.951 137.74 365.639 140.541 376.408C143.343 387.178 153.138 393.951 162.42 391.536Z" fill="#FB4F4E"/>
<path d="M40.7309 170.858L62.5063 31.5278L102.669 177.119L40.7309 170.858Z" fill="#F2F2F2"/>
<path d="M151.908 139.575L61.7779 31.1144L101.94 176.706L151.908 139.575Z" fill="#E2E2E2"/>
<path d="M533.564 980.427C578.662 975.775 608.58 907.638 600.389 828.24C592.198 748.842 548.999 688.249 503.902 692.901C458.805 697.553 428.887 765.69 437.078 845.088C445.269 924.486 488.467 985.08 533.564 980.427Z" fill="#8A2434"/>
<path d="M220.929 607.317C267.705 607.317 305.624 567.012 305.624 517.292C305.624 467.572 267.705 427.267 220.929 427.267C174.154 427.267 136.234 467.572 136.234 517.292C136.234 567.012 174.154 607.317 220.929 607.317Z" fill="url(#paint3_radial_18_181)"/>
<path d="M435.331 890.423C572.387 890.423 683.493 786.742 683.493 658.845C683.493 530.948 572.387 427.267 435.331 427.267C298.275 427.267 187.17 530.948 187.17 658.845C187.17 786.742 298.275 890.423 435.331 890.423Z" fill="url(#paint4_radial_18_181)"/>
<path d="M784.506 762.019C805.494 720.217 784.146 667.068 736.825 643.309C689.503 619.55 634.127 634.178 613.139 675.98C592.151 717.783 613.498 770.931 660.82 794.69C708.142 818.449 763.518 803.822 784.506 762.019Z" fill="url(#paint5_radial_18_181)"/>
<path d="M347.88 996.096C391.251 982.893 407.568 910.289 384.324 833.929C361.081 757.568 307.078 706.368 263.707 719.571C220.335 732.773 204.018 805.377 227.262 881.738C250.506 958.098 304.508 1009.3 347.88 996.096Z" fill="url(#paint6_radial_18_181)"/>
<path d="M323.392 668.913C336.476 668.913 347.083 635.502 347.083 594.287C347.083 553.072 336.476 519.661 323.392 519.661C310.308 519.661 299.701 553.072 299.701 594.287C299.701 635.502 310.308 668.913 323.392 668.913Z" fill="#0A0729"/>
<path d="M323.285 660.16C333.752 660.16 342.238 632.317 342.238 597.971C342.238 563.625 333.752 535.783 323.285 535.783C312.818 535.783 304.333 563.625 304.333 597.971C304.333 632.317 312.818 660.16 323.285 660.16Z" fill="url(#paint7_linear_18_181)"/>
<g filter="url(#filter0_d_18_181)">
<path d="M323.392 596.656C331.131 596.656 337.405 581.542 337.405 562.897C337.405 544.252 331.131 529.137 323.392 529.137C315.653 529.137 309.379 544.252 309.379 562.897C309.379 581.542 315.653 596.656 323.392 596.656Z" fill="#EDF3FF"/>
</g>
<path d="M435.817 667.267C448.901 667.267 459.508 633.856 459.508 592.641C459.508 551.426 448.901 518.015 435.817 518.015C422.733 518.015 412.126 551.426 412.126 592.641C412.126 633.856 422.733 667.267 435.817 667.267Z" fill="#0A0729"/>
<path d="M435.711 658.513C446.178 658.513 454.663 630.67 454.663 596.325C454.663 561.979 446.178 534.136 435.711 534.136C425.243 534.136 416.758 561.979 416.758 596.325C416.758 630.67 425.243 658.513 435.711 658.513Z" fill="url(#paint8_linear_18_181)"/>
<g filter="url(#filter1_d_18_181)">
<path d="M435.817 595.01C443.557 595.01 449.83 579.895 449.83 561.25C449.83 542.605 443.557 527.491 435.817 527.491C428.078 527.491 421.804 542.605 421.804 561.25C421.804 579.895 428.078 595.01 435.817 595.01Z" fill="#EDF3FF"/>
</g>
<g filter="url(#filter2_d_18_181)">
<path d="M485.082 708.003C499.147 708.003 510.55 699.783 510.55 689.643C510.55 679.503 499.147 671.283 485.082 671.283C471.017 671.283 459.614 679.503 459.614 689.643C459.614 699.783 471.017 708.003 485.082 708.003Z" fill="#E871A3"/>
</g>
<g filter="url(#filter3_d_18_181)">
<path d="M297.818 705.172C311.883 705.172 323.285 696.952 323.285 686.812C323.285 676.672 311.883 668.451 297.818 668.451C283.752 668.451 272.35 676.672 272.35 686.812C272.35 696.952 283.752 705.172 297.818 705.172Z" fill="#E871A3"/>
</g>
<path d="M390.911 678.982C390.911 682.95 389.94 686.634 388.269 689.643C385.687 694.31 381.47 697.342 376.696 697.342C373.285 697.342 370.158 695.791 367.718 693.22C364.519 689.856 362.482 684.727 362.482 678.982C362.482 668.842 368.843 660.622 376.696 660.622C384.55 660.622 390.911 668.842 390.911 678.982Z" fill="url(#paint9_linear_18_181)"/>
<path d="M388.269 689.643C385.687 694.31 381.47 697.342 376.696 697.342C373.285 697.342 370.158 695.791 367.718 693.22C367.718 693.22 367.22 684.668 376.696 683.898C386.173 683.128 388.269 689.643 388.269 689.643Z" fill="url(#paint10_radial_18_181)"/>
<path d="M199.937 439.907C204.751 469.06 224.231 497.808 233.368 508.538C242.729 504.691 264.125 495.541 274.823 489.71C285.521 483.879 342.577 474.324 369.768 470.275C377.122 410.551 392.1 282.481 393.169 247.983C394.507 204.861 360.407 195.143 361.075 181.781C347.703 185.668 344.806 195.143 345.028 199.394C341.908 190.082 331.923 171.821 316.946 173.278C330.854 189.411 320.512 205.509 313.603 211.542C306.694 198.382 294.882 167.812 302.905 150.806C259.578 179.473 259.89 225.106 265.462 244.339C258.999 237.253 246.34 219.437 247.409 204.861C195.925 266.203 257.439 297.786 233.368 342.123C191.245 366.417 193.92 403.466 199.937 439.907Z" fill="url(#paint11_linear_18_181)"/>
<path opacity="0.56" d="M254.095 504.287C244.289 483.232 225.478 435.777 228.688 414.398C232.699 387.674 278.834 351.233 272.817 325.117C266.799 299.001 265.462 286.246 254.095 278.958C276.466 276.222 288.514 291.376 293.649 303.942C287.123 281.027 280.224 244.541 291.538 233.406C289.934 257.215 314.94 284.627 327.644 295.356C336.336 280.982 349.441 249.198 332.324 237.05C361.744 250.655 359.738 308.718 355.058 336.049L379.797 299.001L363.75 470.275L254.095 504.287Z" fill="url(#paint12_linear_18_181)"/>
<path d="M307.912 286.482L315.441 237.543L355.761 269.202L351.167 366.857L310.679 338.749L307.912 286.482Z" fill="url(#paint13_diamond_18_181)"/>
<path d="M394.783 175.728L330.966 254.691L337.821 302.107L342.892 306.688L371.829 455.326L360.23 457.107L361.032 462.651L381.25 463.365L394.783 175.728Z" fill="url(#paint14_diamond_18_181)"/>
<path d="M275.02 319.112L331.031 461.591L360.23 457.107L337.821 302.107L297.147 265.353L275.02 319.112Z" fill="url(#paint15_diamond_18_181)"/>
<path d="M371.829 455.326L342.892 306.688L337.821 302.107L360.23 457.107L371.829 455.326Z" fill="url(#paint16_diamond_18_181)"/>
<path d="M470.961 292.242L468.055 242.935L424.894 271.644L420.299 369.299L463.293 344.14L470.961 292.242Z" fill="url(#paint17_diamond_18_181)"/>
<path d="M394.783 175.728L450.97 258.93L439.683 305.705L434.199 309.914L391.394 456.017L402.787 458.61L401.467 464.079L381.249 463.365L394.783 175.728Z" fill="url(#paint18_diamond_18_181)"/>
<path d="M500.679 327.083L431.468 465.139L402.787 458.61L439.683 305.705L483.675 271.942L500.679 327.083Z" fill="url(#paint19_diamond_18_181)"/>
<path d="M391.394 456.017L434.199 309.914L439.683 305.705L402.787 458.61L391.394 456.017Z" fill="url(#paint20_diamond_18_181)"/>
<path fill-rule="evenodd" clip-rule="evenodd" d="M678.266 616.089C679.193 611.517 679.756 606.868 679.939 602.151C683.005 522.928 577.489 454.526 444.263 449.37C311.036 444.214 200.549 504.256 197.483 583.478C197.3 588.195 197.503 592.874 198.073 597.504C212.705 525.3 317.887 472.484 443.18 477.334C568.474 482.183 669.259 542.97 678.266 616.089Z" fill="url(#paint21_radial_18_181)"/>
<g filter="url(#filter4_i_18_181)">
<path fill-rule="evenodd" clip-rule="evenodd" d="M227.155 487.465C230.582 472.216 236.992 458.067 251.593 448.272C298.931 416.513 336.607 445.489 349.527 463.947L344.038 466.302C347.165 486.25 339.226 523.846 283.488 531.261C267.739 533.356 254.857 530.261 243.562 524.876C229.576 555.632 213.452 584.891 190.388 569.936C217.732 563.504 220.404 539.483 223.301 513.432C223.338 513.099 223.375 512.765 223.413 512.431C220.882 510.588 218.403 508.716 215.952 506.867C199.099 494.145 183.615 482.457 162.296 488.133C171.233 467.443 198.813 476.811 227.155 487.465ZM255.816 497.705C271.415 502.46 285.194 504.307 293.615 497.55C310.131 484.296 314.004 479.402 311.048 473.82L314.341 472.828C306.746 467.432 290.344 463 275.08 470.241C268.45 473.385 262.214 484.187 255.816 497.705Z" fill="url(#paint22_linear_18_181)"/>
<path fill-rule="evenodd" clip-rule="evenodd" d="M227.155 487.465C230.582 472.216 236.992 458.067 251.593 448.272C298.931 416.513 336.607 445.489 349.527 463.947L344.038 466.302C347.165 486.25 339.226 523.846 283.488 531.261C267.739 533.356 254.857 530.261 243.562 524.876C229.576 555.632 213.452 584.891 190.388 569.936C217.732 563.504 220.404 539.483 223.301 513.432C223.338 513.099 223.375 512.765 223.413 512.431C220.882 510.588 218.403 508.716 215.952 506.867C199.099 494.145 183.615 482.457 162.296 488.133C171.233 467.443 198.813 476.811 227.155 487.465ZM255.816 497.705C271.415 502.46 285.194 504.307 293.615 497.55C310.131 484.296 314.004 479.402 311.048 473.82L314.341 472.828C306.746 467.432 290.344 463 275.08 470.241C268.45 473.385 262.214 484.187 255.816 497.705Z" fill="url(#paint23_radial_18_181)" fill-opacity="0.45"/>
</g>
<path d="M459.603 365.185C433.285 406.54 434.016 446.587 437.671 461.442C465.694 453.717 632.617 502.44 650.284 557.104C667.342 529.178 666.733 422.82 650.284 404.995C665.515 348.548 715.469 370.532 754.459 422.82C743.29 392.319 705.966 322.047 646.02 284.971C571.088 238.625 492.5 313.491 459.603 365.185Z" fill="url(#paint24_radial_18_181)"/>
<path fill-rule="evenodd" clip-rule="evenodd" d="M431.179 468.204C432.704 447.598 438.511 410.79 450.991 413.222C459.744 414.927 466.779 434.059 471.332 452.417C476.923 434.544 485.583 417.026 496.613 418.402C510.615 420.148 518.564 449.659 521.868 470.852C530.161 451.262 544.032 426.399 555.741 430.89C567.197 435.284 569.088 463.497 568.344 484.693C578.365 465.968 594.356 442.351 604.95 448.11C615.378 453.778 613.838 482.73 610.678 503.884C611.184 504.171 611.689 504.46 612.191 504.75C621.809 486.041 636.671 463.612 647.361 468.857C655.275 472.74 657.15 489.161 656.635 506.004C660.736 495.772 664.977 488.691 668.077 491.574C673.967 497.052 671.51 532.66 669.109 553.928C685.16 576.19 689.788 598.6 678.056 614.555C677.464 589.679 651.404 551.774 591.585 516.238C543.729 487.809 464.049 477.148 429.895 476.555L431.179 468.204Z" fill="url(#paint25_linear_18_181)"/>
<path d="M782.995 513.738L709.707 718.913C709.707 718.913 715.476 730.51 724.952 735.248C734.429 739.986 746.357 738.446 746.357 738.446L828.375 519.661L801.959 498.339L783.007 513.738H782.995Z" fill="url(#paint26_linear_18_181)"/>
<path d="M663.356 455.696C663.356 455.696 677.57 500.708 752.197 543.352C826.823 585.995 886.05 589.549 886.05 589.549L984.568 427.267C984.568 427.267 948.831 362.117 878.943 318.289C809.055 274.461 754.566 281.568 754.566 281.568C754.566 281.568 713.746 305.886 687.047 346.718C646.772 408.314 663.356 455.696 663.356 455.696Z" fill="url(#paint27_radial_18_181)"/>
<mask id="mask0_18_181" style="mask-type:alpha" maskUnits="userSpaceOnUse" x="659" y="281" width="326" height="309">
<path d="M663.356 455.696C663.356 455.696 677.57 500.708 752.197 543.352C826.823 585.995 886.05 589.549 886.05 589.549L984.568 427.267C984.568 427.267 948.831 362.117 878.943 318.289C809.055 274.461 754.566 281.568 754.566 281.568C754.566 281.568 713.746 305.886 687.047 346.718C646.772 408.314 663.356 455.696 663.356 455.696Z" fill="url(#paint28_radial_18_181)"/>
</mask>
<g mask="url(#mask0_18_181)">
<path d="M995.442 528.586C1019.86 472.669 1008.11 413.566 969.202 396.575C930.292 379.584 878.955 411.139 854.537 467.055C830.12 522.972 841.868 582.075 880.778 599.066C919.687 616.057 971.024 584.502 995.442 528.586Z" fill="url(#paint29_linear_18_181)"/>
<path fill-rule="evenodd" clip-rule="evenodd" d="M677.662 487.151C670.483 453.869 675.142 412.901 693.202 373.251C716.273 322.602 755.319 287.041 794.04 276.425L806.579 250.9L689.902 228.986L585.662 375.869L677.662 487.151Z" fill="url(#paint30_linear_18_181)"/>
</g>
<path d="M981.234 522.825C1003.52 471.799 996.049 419.285 964.556 405.532C933.062 391.779 889.468 421.996 867.186 473.022C844.903 524.049 852.371 576.562 883.864 590.315C915.358 604.068 958.952 573.851 981.234 522.825Z" fill="#BCBCBC"/>
<path d="M975.732 520.422C995.865 474.319 989.118 426.872 960.663 414.447C932.208 402.021 892.82 429.322 872.688 475.425C852.556 521.528 859.302 568.975 887.757 581.401C916.212 593.826 955.6 566.526 975.732 520.422Z" fill="#EB6839"/>
<path fill-rule="evenodd" clip-rule="evenodd" d="M929.267 570.021C927.548 570.066 925.824 569.16 924.152 567.644C921.991 565.683 919.87 562.66 917.89 559.167C913.996 552.296 910.621 543.555 908.548 537.333C902.465 539.782 893.618 542.869 885.861 544.35C881.916 545.103 878.239 545.443 875.346 545.066C873.107 544.773 871.302 544.046 870.222 542.707C869.671 542.428 869.164 542.108 868.708 541.743L869.937 542.312C869.754 542.029 869.601 541.723 869.477 541.392C868.65 539.175 869.535 536.107 871.389 532.692C873.252 529.259 876.144 525.383 879.483 521.47C886.062 513.762 894.423 505.86 900.223 500.844C896.182 496.821 890.474 490.47 886.215 484.219C884.048 481.04 882.249 477.876 881.236 475.048C880.73 473.634 880.416 472.293 880.356 471.068C880.297 469.842 880.491 468.711 881.021 467.741C881.555 466.763 882.437 466.019 883.551 465.46C884.668 464.901 886.043 464.514 887.602 464.265C890.72 463.767 894.624 463.816 898.77 464.192C906.997 464.938 916.225 466.977 922.273 468.644C926.757 462.388 933.891 453.286 940.577 445.956C943.948 442.261 947.214 439.008 949.974 436.797C951.354 435.692 952.617 434.84 953.709 434.325C954.724 433.847 955.62 433.646 956.33 433.837L956.339 433.818L956.352 433.825C956.373 433.837 956.394 433.849 956.414 433.862C956.437 433.869 956.46 433.877 956.483 433.886L956.496 433.891L956.487 433.91C957.093 434.327 957.52 435.14 957.813 436.223C958.128 437.389 958.296 438.903 958.347 440.67C958.449 444.205 958.084 448.801 957.451 453.762C956.194 463.603 953.876 474.933 952.011 482.401C957.198 485.931 964.726 491.644 970.621 497.43C973.591 500.347 976.156 503.29 977.796 505.989C978.616 507.338 979.212 508.637 979.508 509.849C979.804 511.061 979.807 512.215 979.408 513.255C979.012 514.287 978.276 515.167 977.303 515.915C976.33 516.663 975.105 517.292 973.7 517.822C970.889 518.881 967.312 519.558 963.487 519.965C955.965 520.766 947.43 520.528 941.748 520.053C941.68 527.721 941.071 539.209 939.456 549.214C938.636 554.292 937.554 559.006 936.145 562.648C934.742 566.272 932.976 568.933 930.751 569.738C930.419 569.858 930.087 569.939 929.754 569.983L930.982 570.551C930.409 570.439 929.837 570.26 929.267 570.021ZM927.669 569.191C927.385 569.016 927.101 568.827 926.819 568.625L928.493 569.399C929.238 569.523 929.974 569.465 930.694 569.204C932.66 568.493 934.325 566.094 935.715 562.502C937.098 558.93 938.17 554.273 938.987 549.213C940.62 539.099 941.221 527.445 941.273 519.799L941.275 519.443L941.573 519.469C947.238 519.959 955.914 520.219 963.534 519.407C967.346 519.002 970.88 518.329 973.636 517.291C975.014 516.771 976.186 516.165 977.098 515.464C978.009 514.763 978.644 513.981 978.978 513.111C979.309 512.249 979.326 511.239 979.046 510.094C978.767 508.949 978.197 507.696 977.39 506.368C975.776 503.712 973.238 500.795 970.276 497.887C964.353 492.073 956.768 486.327 951.588 482.812L951.459 482.724L951.507 482.533C953.374 475.09 955.715 463.678 956.978 453.784C957.61 448.836 957.97 444.28 957.87 440.794C957.819 439.051 957.654 437.587 957.354 436.479C957.07 435.426 956.673 434.727 956.169 434.392C955.587 434.224 954.797 434.375 953.811 434.84C952.773 435.329 951.55 436.151 950.189 437.241C947.467 439.421 944.228 442.646 940.866 446.331C934.144 453.699 926.963 462.872 922.499 469.114L922.384 469.275L922.233 469.233C916.201 467.561 906.911 465.501 898.645 464.751C894.511 464.376 890.645 464.33 887.576 464.82C886.041 465.065 884.717 465.442 883.664 465.97C882.61 466.498 881.852 467.165 881.409 467.975C880.962 468.793 880.777 469.784 880.833 470.932C880.889 472.08 881.186 473.366 881.682 474.753C882.675 477.526 884.451 480.654 886.609 483.822C890.925 490.155 896.74 496.599 900.781 500.599L900.994 500.809L900.724 501.041C894.931 506.031 886.438 514.034 879.787 521.828C876.46 525.726 873.605 529.558 871.778 532.925C869.941 536.309 869.19 539.132 869.921 541.091C870.189 541.809 870.62 542.407 871.198 542.895L872.872 543.669C872.535 543.585 872.207 543.491 871.889 543.388C872.836 543.957 874.052 544.321 875.485 544.509C878.319 544.878 881.947 544.547 885.873 543.797C893.707 542.302 902.672 539.156 908.748 536.696L908.826 536.528L908.865 536.648L908.983 536.601L908.905 536.768C910.964 542.992 914.371 551.861 918.303 558.799C920.274 562.277 922.37 565.256 924.487 567.177C925.558 568.148 926.622 568.838 927.669 569.191Z" fill="#FAD850"/>
<path d="M926.819 568.625C927.101 568.827 927.385 569.016 927.669 569.191C926.622 568.838 925.558 568.148 924.487 567.177C922.37 565.256 920.274 562.277 918.303 558.799C914.371 551.861 910.964 542.992 908.905 536.768L908.983 536.601L908.865 536.648L908.826 536.528L908.748 536.696C902.672 539.156 893.707 542.302 885.873 543.797C881.947 544.547 878.319 544.878 875.485 544.509C874.052 544.321 872.836 543.957 871.889 543.388C872.207 543.491 872.535 543.585 872.872 543.669L871.198 542.895C870.62 542.407 870.189 541.809 869.921 541.091C869.19 539.132 869.941 536.309 871.778 532.925C873.605 529.558 876.46 525.726 879.787 521.828C886.438 514.034 894.931 506.031 900.724 501.041L900.994 500.809L900.781 500.599C896.74 496.599 890.925 490.155 886.609 483.822C884.451 480.654 882.675 477.526 881.682 474.753C881.186 473.366 880.889 472.08 880.833 470.932C880.777 469.784 880.962 468.793 881.409 467.975C881.852 467.165 882.61 466.498 883.664 465.97C884.717 465.442 886.041 465.065 887.576 464.82C890.645 464.33 894.511 464.376 898.645 464.751C906.911 465.501 916.201 467.561 922.233 469.233L922.384 469.275L922.499 469.114C926.963 462.872 934.144 453.699 940.866 446.331C944.228 442.646 947.467 439.421 950.189 437.241C951.55 436.151 952.773 435.329 953.811 434.84C954.797 434.375 955.587 434.224 956.169 434.392C956.673 434.727 957.07 435.426 957.354 436.479C957.654 437.587 957.819 439.051 957.87 440.794C957.97 444.28 957.61 448.836 956.978 453.784C955.715 463.678 953.374 475.09 951.507 482.533L951.459 482.724L951.588 482.812C956.768 486.327 964.353 492.073 970.276 497.887C973.238 500.795 975.776 503.712 977.39 506.368C978.197 507.696 978.767 508.949 979.046 510.094C979.326 511.239 979.309 512.249 978.978 513.111C978.644 513.981 978.009 514.763 977.098 515.464C976.186 516.165 975.014 516.771 973.636 517.291C970.88 518.329 967.346 519.002 963.534 519.407C955.914 520.219 947.238 519.959 941.573 519.469L941.275 519.443L941.273 519.799C941.221 527.445 940.62 539.099 938.987 549.213C938.17 554.273 937.098 558.93 935.715 562.502C934.325 566.094 932.66 568.493 930.694 569.204C929.974 569.465 929.238 569.523 928.493 569.399L926.819 568.625Z" fill="#FAD850"/>
<g style="mix-blend-mode:multiply" opacity="0.17">
<path d="M975.544 520.855C995.572 474.99 988.74 427.737 960.286 415.311C931.831 402.885 892.527 429.993 872.499 475.857C852.471 521.721 859.302 568.975 887.757 581.401C916.212 593.826 955.515 566.719 975.544 520.855Z" fill="url(#paint31_radial_18_181)"/>
</g>
<path fill-rule="evenodd" clip-rule="evenodd" d="M386.427 375.288L353.465 420.73L318.759 433.724L345.281 470.399L335.234 514.761L383.561 473.27L429.38 517.514L421.943 472.642L450.564 437.579L416.677 422.579L386.427 375.288L386.427 375.287L386.427 375.288L386.427 375.287L386.427 375.288Z" fill="url(#paint32_radial_18_181)"/>
<path fill-rule="evenodd" clip-rule="evenodd" d="M386.057 387.948L359.02 425.221L330.554 435.879L352.308 465.961L344.067 502.348L383.706 468.316L421.288 504.606L415.188 467.8L438.663 439.041L410.868 426.738L386.057 387.949L386.057 387.948L386.057 387.948L386.057 387.948L386.057 387.948Z" fill="url(#paint33_angular_18_181)"/>
<defs>
<filter id="filter0_d_18_181" x="307.379" y="527.137" width="32.0264" height="71.519" filterUnits="userSpaceOnUse" color-interpolation-filters="sRGB">
<feFlood flood-opacity="0" result="BackgroundImageFix"/>
<feColorMatrix in="SourceAlpha" type="matrix" values="0 0 0 0 0 0 0 0 0 0 0 0 0 0 0 0 0 0 127 0" result="hardAlpha"/>
<feOffset/>
<feGaussianBlur stdDeviation="1"/>
<feComposite in2="hardAlpha" operator="out"/>
<feColorMatrix type="matrix" values="0 0 0 0 1 0 0 0 0 1 0 0 0 0 1 0 0 0 1 0"/>
<feBlend mode="normal" in2="BackgroundImageFix" result="effect1_dropShadow_18_181"/>
<feBlend mode="normal" in="SourceGraphic" in2="effect1_dropShadow_18_181" result="shape"/>
</filter>
<filter id="filter1_d_18_181" x="419.804" y="525.491" width="32.0264" height="71.519" filterUnits="userSpaceOnUse" color-interpolation-filters="sRGB">
<feFlood flood-opacity="0" result="BackgroundImageFix"/>
<feColorMatrix in="SourceAlpha" type="matrix" values="0 0 0 0 0 0 0 0 0 0 0 0 0 0 0 0 0 0 127 0" result="hardAlpha"/>
<feOffset/>
<feGaussianBlur stdDeviation="1"/>
<feComposite in2="hardAlpha" operator="out"/>
<feColorMatrix type="matrix" values="0 0 0 0 1 0 0 0 0 1 0 0 0 0 1 0 0 0 1 0"/>
<feBlend mode="normal" in2="BackgroundImageFix" result="effect1_dropShadow_18_181"/>
<feBlend mode="normal" in="SourceGraphic" in2="effect1_dropShadow_18_181" result="shape"/>
</filter>
<filter id="filter2_d_18_181" x="455.814" y="667.483" width="58.5353" height="44.3209" filterUnits="userSpaceOnUse" color-interpolation-filters="sRGB">
<feFlood flood-opacity="0" result="BackgroundImageFix"/>
<feColorMatrix in="SourceAlpha" type="matrix" values="0 0 0 0 0 0 0 0 0 0 0 0 0 0 0 0 0 0 127 0" result="hardAlpha"/>
<feOffset/>
<feGaussianBlur stdDeviation="1.9"/>
<feComposite in2="hardAlpha" operator="out"/>
<feColorMatrix type="matrix" values="0 0 0 0 0.909804 0 0 0 0 0.443137 0 0 0 0 0.639216 0 0 0 1 0"/>
<feBlend mode="normal" in2="BackgroundImageFix" result="effect1_dropShadow_18_181"/>
<feBlend mode="normal" in="SourceGraphic" in2="effect1_dropShadow_18_181" result="shape"/>
</filter>
<filter id="filter3_d_18_181" x="268.55" y="664.651" width="58.5353" height="44.3209" filterUnits="userSpaceOnUse" color-interpolation-filters="sRGB">
<feFlood flood-opacity="0" result="BackgroundImageFix"/>
<feColorMatrix in="SourceAlpha" type="matrix" values="0 0 0 0 0 0 0 0 0 0 0 0 0 0 0 0 0 0 127 0" result="hardAlpha"/>
<feOffset/>
<feGaussianBlur stdDeviation="1.9"/>
<feComposite in2="hardAlpha" operator="out"/>
<feColorMatrix type="matrix" values="0 0 0 0 0.909804 0 0 0 0 0.443137 0 0 0 0 0.639216 0 0 0 1 0"/>
<feBlend mode="normal" in2="BackgroundImageFix" result="effect1_dropShadow_18_181"/>
<feBlend mode="normal" in="SourceGraphic" in2="effect1_dropShadow_18_181" result="shape"/>
</filter>
<filter id="filter4_i_18_181" x="162.296" y="434.105" width="187.231" height="139.862" filterUnits="userSpaceOnUse" color-interpolation-filters="sRGB">
<feFlood flood-opacity="0" result="BackgroundImageFix"/>
<feBlend mode="normal" in="SourceGraphic" in2="BackgroundImageFix" result="shape"/>
<feColorMatrix in="SourceAlpha" type="matrix" values="0 0 0 0 0 0 0 0 0 0 0 0 0 0 0 0 0 0 127 0" result="hardAlpha"/>
<feOffset dx="6" dy="5"/>
<feComposite in2="hardAlpha" operator="arithmetic" k2="-1" k3="1"/>
<feColorMatrix type="matrix" values="0 0 0 0 0.979167 0 0 0 0 0.956319 0 0 0 0 0.864931 0 0 0 0.46 0"/>
<feBlend mode="normal" in2="shape" result="effect1_innerShadow_18_181"/>
</filter>
<radialGradient id="paint0_radial_18_181" cx="0" cy="0" r="1" gradientUnits="userSpaceOnUse" gradientTransform="translate(88.1323 353.638) rotate(35.0481) scale(44.6373 44.6373)">
<stop stop-color="#00BBD2"/>
<stop offset="1" stop-color="#00A8D1"/>
</radialGradient>
<radialGradient id="paint1_radial_18_181" cx="0" cy="0" r="1" gradientUnits="userSpaceOnUse" gradientTransform="translate(190.438 316.879) rotate(21.4924) scale(89.9044 89.9043)">
<stop stop-color="#00BBD2"/>
<stop offset="1" stop-color="#00A8D1"/>
</radialGradient>
<radialGradient id="paint2_radial_18_181" cx="0" cy="0" r="1" gradientUnits="userSpaceOnUse" gradientTransform="translate(148.713 372.42) rotate(59.1158) scale(150.55 150.55)">
<stop stop-color="#00BBD2"/>
<stop offset="1" stop-color="#00A8D1"/>
</radialGradient>
<radialGradient id="paint3_radial_18_181" cx="0" cy="0" r="1" gradientUnits="userSpaceOnUse" gradientTransform="translate(197.647 479.122) rotate(54.1536) scale(163.61 169.624)">
<stop stop-color="#FFBAD6"/>
<stop offset="1" stop-color="#C85C7E"/>
</radialGradient>
<radialGradient id="paint4_radial_18_181" cx="0" cy="0" r="1" gradientUnits="userSpaceOnUse" gradientTransform="translate(367.114 560.658) rotate(50.5485) scale(441.809 473.448)">
<stop stop-color="#FFBAD6"/>
<stop offset="1" stop-color="#C85C7E"/>
</radialGradient>
<radialGradient id="paint5_radial_18_181" cx="0" cy="0" r="1" gradientUnits="userSpaceOnUse" gradientTransform="translate(652.047 721.567) rotate(-7.49147) scale(170.672 173.174)">
<stop stop-color="#FFBAD6"/>
<stop offset="1" stop-color="#C85C7E"/>
</radialGradient>
<radialGradient id="paint6_radial_18_181" cx="0" cy="0" r="1" gradientUnits="userSpaceOnUse" gradientTransform="translate(264.058 767.953) rotate(62.096) scale(260.705 148.077)">
<stop stop-color="#D11742"/>
<stop offset="1" stop-color="#9C2A43"/>
</radialGradient>
<linearGradient id="paint7_linear_18_181" x1="323.285" y1="535.783" x2="323.285" y2="660.16" gradientUnits="userSpaceOnUse">
<stop stop-color="#0A0729" stop-opacity="0"/>
<stop offset="0.385" stop-color="#140D51" stop-opacity="0.385"/>
<stop offset="1" stop-color="#2F23A3"/>
</linearGradient>
<linearGradient id="paint8_linear_18_181" x1="435.711" y1="534.136" x2="435.711" y2="658.513" gradientUnits="userSpaceOnUse">
<stop stop-color="#0A0729" stop-opacity="0"/>
<stop offset="0.385" stop-color="#140D51" stop-opacity="0.385"/>
<stop offset="1" stop-color="#2F23A3"/>
</linearGradient>
<linearGradient id="paint9_linear_18_181" x1="370.075" y1="669.636" x2="395.543" y2="717.61" gradientUnits="userSpaceOnUse">
<stop stop-color="#771B33"/>
<stop offset="1" stop-color="#440B2A"/>
</linearGradient>
<radialGradient id="paint10_radial_18_181" cx="0" cy="0" r="1" gradientUnits="userSpaceOnUse" gradientTransform="translate(375.405 687.996) rotate(58.7004) scale(86.6439 131.855)">
<stop stop-color="#A7272C"/>
<stop offset="1" stop-color="#581619"/>
</radialGradient>
<linearGradient id="paint11_linear_18_181" x1="294.874" y1="150.806" x2="294.874" y2="508.538" gradientUnits="userSpaceOnUse">
<stop stop-color="#FF5132"/>
<stop offset="1" stop-color="#FFC039"/>
</linearGradient>
<linearGradient id="paint12_linear_18_181" x1="304.06" y1="233.406" x2="304.06" y2="504.287" gradientUnits="userSpaceOnUse">
<stop stop-color="#FF0000"/>
<stop offset="0.85" stop-color="#FFE347"/>
</linearGradient>
<radialGradient id="paint13_diamond_18_181" cx="0" cy="0" r="1" gradientUnits="userSpaceOnUse" gradientTransform="translate(328.687 275.359) rotate(74.5731) scale(155.261 56.4263)">
<stop stop-color="#9AD7FD"/>
<stop offset="1" stop-color="#2B5282"/>
</radialGradient>
<radialGradient id="paint14_diamond_18_181" cx="0" cy="0" r="1" gradientUnits="userSpaceOnUse" gradientTransform="translate(386.459 255.466) rotate(91.6395) scale(248.247 97.3608)">
<stop offset="0.00823045" stop-color="#D7FBFE"/>
<stop offset="1" stop-color="#6699DB"/>
</radialGradient>
<radialGradient id="paint15_diamond_18_181" cx="0" cy="0" r="1" gradientUnits="userSpaceOnUse" gradientTransform="translate(386.459 255.466) rotate(91.6395) scale(248.247 97.3608)">
<stop offset="0.00823045" stop-color="#D7FBFE"/>
<stop offset="1" stop-color="#6699DB"/>
</radialGradient>
<radialGradient id="paint16_diamond_18_181" cx="0" cy="0" r="1" gradientUnits="userSpaceOnUse" gradientTransform="translate(386.459 255.466) rotate(91.6395) scale(248.247 97.3608)">
<stop offset="0.00823045" stop-color="#D7FBFE"/>
<stop offset="1" stop-color="#6699DB"/>
</radialGradient>
<radialGradient id="paint17_diamond_18_181" cx="0" cy="0" r="1" gradientUnits="userSpaceOnUse" gradientTransform="translate(451.3 279.691) rotate(110.686) scale(156.335 56.0384)">
<stop stop-color="#9AD7FD"/>
<stop offset="1" stop-color="#2B5282"/>
</radialGradient>
<radialGradient id="paint18_diamond_18_181" cx="0" cy="0" r="1" gradientUnits="userSpaceOnUse" gradientTransform="translate(395.589 255.788) rotate(93.7477) scale(248.354 97.3188)">
<stop offset="0.00823045" stop-color="#D7FBFE"/>
<stop offset="1" stop-color="#6699DB"/>
</radialGradient>
<radialGradient id="paint19_diamond_18_181" cx="0" cy="0" r="1" gradientUnits="userSpaceOnUse" gradientTransform="translate(395.589 255.788) rotate(93.7477) scale(248.354 97.3188)">
<stop offset="0.00823045" stop-color="#D7FBFE"/>
<stop offset="1" stop-color="#6699DB"/>
</radialGradient>
<radialGradient id="paint20_diamond_18_181" cx="0" cy="0" r="1" gradientUnits="userSpaceOnUse" gradientTransform="translate(395.589 255.788) rotate(93.7477) scale(248.354 97.3188)">
<stop offset="0.00823045" stop-color="#D7FBFE"/>
<stop offset="1" stop-color="#6699DB"/>
</radialGradient>
<radialGradient id="paint21_radial_18_181" cx="0" cy="0" r="1" gradientUnits="userSpaceOnUse" gradientTransform="translate(311.44 450.495) rotate(35.7207) scale(862.284 281.365)">
<stop stop-color="#B054F8"/>
<stop offset="1" stop-color="#51208C"/>
</radialGradient>
<linearGradient id="paint22_linear_18_181" x1="227.719" y1="464.288" x2="383.004" y2="630.482" gradientUnits="userSpaceOnUse">
<stop stop-color="#FED841"/>
<stop offset="1" stop-color="#F07A25"/>
</linearGradient>
<radialGradient id="paint23_radial_18_181" cx="0" cy="0" r="1" gradientUnits="userSpaceOnUse" gradientTransform="translate(183.51 448.126) rotate(29.1288) scale(177.642 228.572)">
<stop stop-color="#FFF1C5"/>
<stop offset="1" stop-color="white" stop-opacity="0"/>
</radialGradient>
<radialGradient id="paint24_radial_18_181" cx="0" cy="0" r="1" gradientUnits="userSpaceOnUse" gradientTransform="translate(579.007 314.68) rotate(81.5881) scale(249.866 277.454)">
<stop stop-color="#F22D2D"/>
<stop offset="1" stop-color="#8C1A4C"/>
</radialGradient>
<linearGradient id="paint25_linear_18_181" x1="557.254" y1="413.107" x2="609.945" y2="850.871" gradientUnits="userSpaceOnUse">
<stop stop-color="#F8F6F6"/>
<stop offset="1" stop-color="#929191"/>
</linearGradient>
<linearGradient id="paint26_linear_18_181" x1="763.935" y1="652.46" x2="663.842" y2="497.877" gradientUnits="userSpaceOnUse">
<stop stop-color="#6C4632"/>
<stop offset="1" stop-color="#D28861"/>
</linearGradient>
<radialGradient id="paint27_radial_18_181" cx="0" cy="0" r="1" gradientUnits="userSpaceOnUse" gradientTransform="translate(794.141 328.488) rotate(80.9605) scale(263.877 277.727)">
<stop stop-color="#B87C5D"/>
<stop offset="1" stop-color="#4B382D"/>
</radialGradient>
<radialGradient id="paint28_radial_18_181" cx="0" cy="0" r="1" gradientUnits="userSpaceOnUse" gradientTransform="translate(798.287 393.637) rotate(79.2005) scale(208.621 219.571)">
<stop stop-color="#6C4632"/>
<stop offset="1" stop-color="#D28861"/>
</radialGradient>
<linearGradient id="paint29_linear_18_181" x1="969.202" y1="396.575" x2="880.778" y2="599.066" gradientUnits="userSpaceOnUse">
<stop stop-color="#EBEBEB"/>
<stop offset="1" stop-color="#C2C2C2"/>
</linearGradient>
<linearGradient id="paint30_linear_18_181" x1="736.691" y1="272.222" x2="701.747" y2="625.216" gradientUnits="userSpaceOnUse">
<stop stop-color="#E6E3E3"/>
<stop offset="1" stop-color="#A9A5A5"/>
</linearGradient>
<radialGradient id="paint31_radial_18_181" cx="0" cy="0" r="1" gradientUnits="userSpaceOnUse" gradientTransform="translate(919.93 403.951) rotate(71.5542) scale(312.257 192.831)">
<stop stop-color="#5B173D" stop-opacity="0.73"/>
<stop offset="1" stop-color="#853B20" stop-opacity="0"/>
</radialGradient>
<radialGradient id="paint32_radial_18_181" cx="0" cy="0" r="1" gradientUnits="userSpaceOnUse" gradientTransform="translate(371.571 427.123) rotate(71.9464) scale(280.893 267.107)">
<stop stop-color="#FFCF4A"/>
<stop offset="1" stop-color="#E2AF5C"/>
</radialGradient>
<radialGradient id="paint33_angular_18_181" cx="0" cy="0" r="1" gradientUnits="userSpaceOnUse" gradientTransform="translate(384.344 446.504) rotate(-88.3246) scale(53.8309 95.6639)">
<stop stop-color="#CEFAFF"/>
<stop offset="1" stop-color="#ACC5E4"/>
</radialGradient>
</defs>
</svg>
